<?xml version="1.0" standalone="no"?>
<!DOCTYPE svg PUBLIC "-//W3C//DTD SVG 20010904//EN"
 "http://www.w3.org/TR/2001/REC-SVG-20010904/DTD/svg10.dtd">
<svg version="1.0" xmlns="http://www.w3.org/2000/svg"
 width="500.000000pt" height="500.000000pt" viewBox="0 0 500.000000 500.000000"
 preserveAspectRatio="xMidYMid meet">

<g transform="translate(0.000000,500.000000) scale(0.100000,-0.100000)"
fill="#currentColor" stroke="none">
<path d="M2135 4398 c-98 -21 -144 -43 -127 -60 7 -7 21 -7 44 2 68 25 209 39
283 28 107 -15 192 -36 243 -60 56 -27 214 -119 297 -175 74 -49 203 -175 216
-211 15 -38 2 -79 -47 -151 -49 -71 -50 -74 -29 -91 19 -15 56 6 82 48 29 46
44 61 59 55 20 -7 57 -93 78 -178 9 -38 21 -83 26 -100 15 -51 22 -275 11
-380 -10 -107 -29 -199 -56 -280 -74 -220 -277 -445 -463 -515 -72 -27 -242
-30 -311 -5 -56 19 -143 72 -155 94 -5 9 -49 53 -97 99 -82 78 -188 217 -217
286 -11 25 -10 31 7 47 11 11 26 19 34 19 18 0 54 27 46 35 -4 3 -22 -3 -40
-14 -74 -45 -114 -18 -180 124 -72 156 -74 182 -14 242 31 31 37 33 101 33 76
0 120 -19 150 -65 20 -30 37 -31 75 -4 39 28 41 75 3 89 -23 9 -24 12 -13 27
13 15 11 16 -18 10 -45 -9 -44 15 2 43 42 26 45 35 9 26 l-26 -7 7 50 c6 46 5
50 -17 53 -19 2 -22 8 -20 31 1 15 -1 27 -6 27 -5 0 -55 -30 -111 -66 -69 -45
-105 -64 -112 -57 -11 11 65 77 132 115 70 39 8 54 -77 18 -35 -15 -50 -18
-58 -10 -8 9 -2 20 24 41 30 26 32 29 13 29 -12 0 -25 5 -29 11 -8 14 11 33
65 62 74 38 99 101 60 151 -18 23 -28 26 -77 26 -65 0 -96 -17 -174 -93 -36
-34 -49 -57 -62 -103 -27 -99 -31 -109 -46 -112 -16 -3 -65 67 -75 109 -5 19
2 41 23 80 32 56 58 137 48 147 -4 3 -17 -5 -31 -18 l-24 -23 -6 29 c-4 16
-13 47 -21 68 -12 31 -12 41 -3 47 17 10 49 -8 49 -26 0 -8 5 -15 10 -15 16 0
11 33 -8 57 -11 14 -38 27 -72 35 -63 15 -278 14 -330 0 -19 -6 -53 -15 -76
-21 -30 -8 -48 -22 -72 -55 -30 -41 -32 -50 -32 -128 0 -63 6 -96 23 -138 33
-80 85 -145 140 -175 26 -14 47 -28 47 -30 0 -17 -15 -35 -30 -35 -37 0 -45
-27 -26 -83 37 -106 122 -295 175 -387 29 -52 69 -122 87 -155 73 -134 213
-367 283 -473 62 -94 92 -161 84 -192 -23 -96 -114 -187 -290 -290 -102 -60
-138 -75 -187 -82 -33 -5 -64 -14 -68 -21 -29 -45 16 -90 135 -133 26 -9 47
-23 47 -30 0 -7 -13 -28 -29 -46 -91 -105 -142 -310 -121 -488 6 -47 13 -107
17 -135 3 -27 10 -55 15 -62 6 -7 10 -28 11 -47 1 -30 -7 -43 -62 -94 -48 -46
-62 -65 -59 -83 4 -30 66 -65 131 -74 44 -6 57 -3 130 33 122 60 169 80 202
88 36 8 111 49 143 77 20 19 22 29 22 139 0 109 2 123 25 161 24 41 33 49 104
89 40 23 126 28 164 11 12 -6 54 -23 92 -38 128 -51 240 -193 275 -350 7 -33
18 -66 23 -73 6 -7 34 -12 73 -12 34 0 97 -5 138 -11 88 -12 188 -1 294 32
164 50 189 68 162 117 -11 18 -25 28 -45 30 -48 4 -109 23 -127 40 -11 9 -18
29 -18 51 0 103 -76 262 -177 371 -30 32 -87 84 -129 116 -56 43 -74 63 -72
78 2 11 36 47 78 81 41 33 99 85 130 115 62 63 90 74 225 89 50 5 116 14 148
20 134 25 175 32 232 40 34 5 88 22 124 40 58 30 72 33 140 31 42 -2 86 -2 98
-1 23 1 91 76 97 108 2 10 13 36 24 58 26 52 37 168 21 231 -17 69 -36 94 -69
94 -15 0 -50 10 -78 21 -64 27 -88 21 -145 -34 -43 -43 -56 -71 -49 -114 4
-30 22 -30 22 0 0 46 81 127 127 127 55 0 75 -85 28 -116 -21 -13 -31 -15 -50
-6 -29 13 -43 -1 -25 -23 14 -17 135 -21 145 -5 8 13 52 13 60 0 23 -36 -46
-80 -126 -80 -43 0 -50 -3 -47 -17 2 -14 15 -19 52 -21 27 -2 54 2 59 7 12 12
67 15 67 4 0 -22 -43 -73 -64 -79 -26 -6 -90 -1 -139 11 -24 6 -26 5 -21 -11
12 -33 36 -44 96 -44 50 0 58 -3 58 -19 0 -51 -148 -75 -194 -32 -13 12 -36
21 -55 21 -27 0 -34 5 -47 36 -16 38 -15 158 1 233 l8 34 -35 -6 c-19 -3 -77
-25 -129 -49 -112 -53 -137 -63 -207 -79 -51 -12 -53 -12 -77 12 -18 17 -30
49 -43 112 -22 102 -20 108 57 189 27 28 57 66 65 83 95 198 110 242 128 400
13 106 15 344 4 410 -32 190 -41 227 -73 295 -88 192 -119 244 -178 304 -103
106 -124 121 -325 239 -146 87 -199 106 -356 136 -79 15 -121 13 -229 -11z
m-667 -345 c31 -31 62 -119 62 -174 0 -60 -28 -82 -133 -104 -15 -3 -25 -10
-22 -15 8 -13 95 0 123 18 20 13 25 13 32 2 9 -15 -5 -50 -19 -50 -5 0 -19
-21 -32 -46 -16 -35 -37 -56 -83 -85 -78 -51 -94 -55 -173 -35 -52 13 -73 25
-99 53 -54 59 -77 118 -82 207 -9 163 32 205 215 225 34 3 65 10 69 14 4 4 34
7 66 7 43 0 64 -5 76 -17z m2396 -1649 c7 -19 -1 -34 -19 -34 -18 0 -28 17
-21 35 7 20 32 19 40 -1z m-886 -42 c-9 -62 -60 -160 -121 -231 -22 -26 -32
-32 -52 -27 -24 6 -25 9 -24 96 l2 90 81 54 c44 30 89 55 100 55 16 1 18 -4
14 -37z m-626 -52 c33 -22 69 -40 79 -40 19 0 52 -45 115 -155 40 -69 54 -112
54 -166 0 -25 3 -49 6 -52 10 -10 40 9 146 90 128 98 175 155 238 292 24 52
47 -14 36 -102 -21 -162 -115 -291 -353 -480 -199 -158 -217 -169 -273 -170
-44 -1 -55 3 -88 34 -63 60 -104 70 -158 41 -158 -86 -144 -87 -195 11 -17 34
-45 81 -60 104 -48 70 -45 78 102 209 175 156 220 219 257 360 9 35 21 64 26
64 4 0 35 -18 68 -40z m363 -71 c16 -29 15 -31 -18 -77 -18 -26 -46 -54 -61
-62 -26 -14 -28 -14 -50 14 -21 25 -60 94 -68 121 -2 5 26 14 62 21 109 19
118 18 135 -17z m342 -1349 c23 -11 45 -25 49 -32 9 -14 -43 -58 -68 -58 -9 0
-19 -4 -22 -9 -3 -4 -50 -14 -103 -20 -54 -7 -110 -14 -125 -16 -24 -4 -28 -1
-28 20 0 14 4 25 9 25 13 0 149 80 162 96 17 20 79 17 126 -6z m-1577 -89 c25
-7 64 -14 88 -18 32 -4 42 -10 42 -24 0 -21 -25 -33 -165 -79 -77 -25 -109
-31 -138 -26 -72 13 -67 71 10 136 41 34 64 35 163 11z"/>
<path d="M1218 3735 c-12 -14 -28 -25 -35 -25 -8 0 -11 -4 -8 -10 10 -17 39
-11 53 10 15 24 35 25 66 5 22 -15 56 -12 56 5 0 8 -78 40 -98 40 -7 0 -22
-11 -34 -25z"/>
<path d="M2473 1784 c-8 -22 11 -37 36 -29 31 10 28 45 -4 45 -14 0 -28 -7
-32 -16z"/>
<path d="M2075 4295 c-96 -16 -137 -28 -167 -49 -31 -22 -10 -21 92 5 72 18
101 20 209 15 69 -3 146 -8 171 -12 l45 -5 -30 18 c-18 11 -68 24 -121 31
-104 14 -94 14 -199 -3z"/>
<path d="M3696 4191 c-36 -49 -109 -135 -163 -191 -92 -96 -117 -130 -95 -130
11 0 134 128 182 189 19 24 68 81 108 127 39 45 72 85 72 88 0 3 -8 6 -19 6
-12 0 -42 -32 -85 -89z"/>
<path d="M3960 4253 c-13 -16 -52 -60 -87 -99 -35 -39 -63 -74 -63 -78 0 -16
24 -3 48 27 15 17 53 59 84 93 54 56 70 84 50 84 -5 0 -19 -12 -32 -27z"/>
<path d="M2045 4185 c-38 -8 -99 -21 -135 -30 -36 -9 -77 -19 -92 -22 -15 -3
-33 -11 -39 -19 -20 -25 16 -27 63 -4 23 11 61 26 83 32 50 15 242 16 315 3
30 -6 63 -9 73 -7 18 4 18 4 -1 17 -19 14 -153 46 -182 44 -8 -1 -46 -7 -85
-14z"/>
<path d="M4535 4054 c-137 -107 -323 -233 -523 -355 -326 -199 -494 -319 -444
-319 4 0 93 56 197 124 236 155 310 201 405 256 41 24 91 53 110 65 19 12 62
37 95 55 33 19 85 53 115 76 30 23 76 52 102 64 50 23 60 36 51 69 -8 32 -32
25 -108 -35z"/>
<path d="M1945 4071 c-54 -16 -94 -31 -162 -64 -27 -12 -31 -32 -5 -22 139 56
261 73 370 52 37 -8 41 -7 36 7 -17 45 -132 57 -239 27z"/>
<path d="M1890 3953 c-38 -4 -49 -8 -123 -44 -48 -23 -68 -39 -47 -39 5 0 18
4 28 9 79 42 121 54 189 53 40 0 75 3 78 8 5 8 -46 21 -74 18 -9 0 -32 -3 -51
-5z"/>
<path d="M4530 3796 c-58 -34 -78 -66 -41 -66 25 0 111 59 111 76 0 24 -15 22
-70 -10z"/>
<path d="M2607 3793 c-15 -15 -5 -51 21 -74 31 -28 56 -41 126 -61 65 -19 88
-14 84 21 -3 22 -18 33 -98 73 -93 47 -120 55 -133 41z"/>
<path d="M1915 3660 c-3 -5 1 -10 10 -10 9 0 13 5 10 10 -3 6 -8 10 -10 10 -2
0 -7 -4 -10 -10z"/>
<path d="M4255 3649 c-16 -11 -56 -33 -87 -49 -51 -27 -80 -61 -64 -77 8 -8
73 25 161 82 55 34 67 48 53 57 -20 12 -30 10 -63 -13z"/>
<path d="M3076 3644 c-10 -26 -7 -69 6 -82 34 -34 76 6 57 55 -16 43 -51 58
-63 27z"/>
<path d="M2747 3598 c-19 -10 -23 -59 -7 -89 8 -13 21 -19 45 -19 35 0 35 0
35 44 0 24 -6 48 -12 53 -22 17 -44 21 -61 11z"/>
<path d="M3075 3476 c-28 -8 -41 -18 -43 -33 -4 -25 14 -23 76 7 64 31 122
-10 75 -52 -32 -28 -81 -48 -116 -48 -34 0 -57 -23 -36 -36 16 -10 111 16 150
41 29 19 38 31 41 62 8 58 -5 73 -60 72 -26 0 -65 -6 -87 -13z"/>
<path d="M3745 3373 c-33 -14 -68 -29 -77 -34 -10 -5 -34 -9 -53 -9 -24 0 -34
-4 -29 -11 9 -15 87 -4 139 20 22 10 55 24 73 31 31 12 44 31 20 29 -7 0 -40
-12 -73 -26z"/>
<path d="M707 3335 c-8 -19 0 -23 85 -41 87 -18 143 -31 181 -40 22 -5 26 -3
21 9 -3 9 -24 18 -47 22 -23 4 -70 20 -104 36 -67 32 -127 38 -136 14z"/>
<path d="M2722 3277 c-161 -91 -342 -238 -342 -278 0 -40 25 -27 103 55 68 71
106 100 221 169 77 46 142 89 144 95 8 24 -35 10 -126 -41z"/>
<path d="M882 3185 c-78 -19 -75 -25 12 -25 77 0 122 12 111 31 -8 12 -58 10
-123 -6z"/>
<path d="M2975 3179 c-177 -18 -392 -116 -474 -216 -29 -35 -31 -43 -31 -114
0 -66 3 -79 24 -102 40 -43 91 -59 196 -59 81 0 103 3 150 25 153 69 209 157
166 260 -28 69 -97 85 -269 64 -66 -8 -68 -8 -58 10 19 37 268 102 389 103 30
0 42 4 40 12 -6 18 -61 24 -133 17z"/>
<path d="M714 3159 c-11 -18 13 -32 41 -25 22 6 25 9 15 21 -15 18 -46 20 -56
4z"/>
<path d="M1913 3153 c-21 -8 -15 -30 13 -48 22 -14 25 -22 20 -49 -7 -36 12
-63 37 -53 15 6 12 108 -5 140 -8 16 -39 21 -65 10z"/>
<path d="M4558 3035 c-16 -17 -268 -71 -476 -102 -18 -3 -35 -9 -38 -14 -3 -5
-16 -9 -30 -9 -14 0 -34 -4 -44 -10 -10 -5 -60 -15 -111 -21 -199 -25 -203
-26 -102 -28 52 0 94 3 98 9 3 6 29 10 57 10 29 0 65 4 82 10 17 5 105 23 196
40 91 17 185 35 210 40 25 5 70 14 100 19 85 15 115 26 115 42 0 14 -45 25
-57 14z"/>
<path d="M4473 2848 c-33 -16 -28 -28 11 -28 29 0 66 20 66 36 0 8 -55 2 -77
-8z"/>
<path d="M3714 2769 c-3 -5 9 -9 25 -9 17 0 31 2 31 4 0 8 -51 13 -56 5z"/>
<path d="M3900 2770 c-12 -8 -12 -10 3 -16 9 -3 29 -3 44 1 21 5 24 8 12 16
-18 11 -40 11 -59 -1z"/>
<path d="M1070 2644 c-19 -12 -40 -23 -45 -23 -6 -1 -42 -17 -79 -36 -38 -19
-76 -35 -85 -36 -9 -1 -70 -29 -136 -62 -94 -49 -121 -67 -123 -84 -4 -29 1
-29 51 6 67 45 405 211 432 211 6 0 20 8 29 19 26 29 -2 33 -44 5z"/>
<path d="M1215 2467 c-138 -74 -269 -151 -304 -178 -24 -20 -14 -26 17 -10 9
5 42 21 72 37 70 35 122 64 135 74 6 4 52 29 103 55 50 26 92 51 92 56 0 18
-37 7 -115 -34z"/>
<path d="M1287 2401 c-52 -27 -109 -58 -125 -70 -17 -11 -32 -21 -35 -21 -12
0 -122 -72 -130 -85 -14 -25 16 -18 61 15 23 17 44 30 47 30 3 0 38 20 78 43
39 24 99 59 132 76 65 35 82 48 73 56 -2 3 -48 -17 -101 -44z"/>
<path d="M868 2253 c7 -3 16 -2 19 1 4 3 -2 6 -13 5 -11 0 -14 -3 -6 -6z"/>
</g>
</svg>
